<svg xmlns="http://www.w3.org/2000/svg" width="100%" height="100%" x="0" y="0" preserveAspectRatio="xMidYMid meet" viewBox="0 0 100 100"><defs><style>.svg-fill-secondary{fill:transparent}.svg-fill-tertiary{fill:#e5e7eb}.svg-stroke-primary{stroke:#1493c9}</style></defs><clipPath id="clip-path-202412-3119-0639-5af28559-0466-4ef5-8789-ae31d29cf0ad"><circle cx="50" cy="50" r="50"/></clipPath><circle cx="50" cy="50" r="50" class="svg-fill-tertiary"/><circle cx="50" cy="50" r="50" class="svg-fill-secondary svg-builder-circle"/><g><path fill="none" stroke-linecap="round" stroke-linejoin="round" stroke-width="8" d="M50.5,56.6,45.2,68.2l-4-9.7s.9-24.1-19.7-20.2c0,0-5.6,22.2,19,21.9" class="svg-stroke-primary" transform="translate(20.00, 20.00) scale(0.60, 0.60)"/><path fill="none" stroke-linecap="round" stroke-linejoin="round" stroke-width="8" d="M18.4,87.8c13.5-3,20.8-6.9,24.1-11.7,0,0,19.4,20.2,30.6.9,0,0-10.5-12.8-30.6-.9,0,0,7.6-16,8.4-18.5,0,0,26.6,12.2,30.7-11.2,0,0-22.6-7-33.3,11.8,0,0,2.2-17.5,2.4-19.9,0,0,14.2-13.2-2.6-26.1,0,0-13,12.6,2,26.5" class="svg-stroke-primary" transform="translate(20.00, 20.00) scale(0.60, 0.60)"/></g></svg>